<svg width="25" height="28" viewBox="0 0 25 28" fill="none" xmlns="http://www.w3.org/2000/svg">
    <g filter="url(#filter0_d)">
        <rect width="25" height="25" rx="5" fill="#6E47D0"/>
        <path d="M18.1754 12.1777C17.8476 12.1777 17.5791 12.4428 17.5791 12.7741V18.7272C17.5791 19.055 17.314 19.3236 16.9827 19.3236H6.27265C5.94483 19.3236 5.67629 19.0585 5.67629 18.7272V6.82094C5.67629 6.49311 5.94134 6.22458 6.27265 6.22458H13.415C13.7428 6.22458 14.0114 5.95953 14.0114 5.62822C14.0114 5.29691 13.7463 5.03186 13.415 5.03186H6.27265C5.28569 5.03535 4.48706 5.83747 4.48706 6.82094V18.7237C4.48706 19.7107 5.28569 20.5093 6.27265 20.5093H16.9862C17.9731 20.5093 18.7718 19.7107 18.7718 18.7237V12.7741C18.7718 12.4462 18.5067 12.1777 18.1754 12.1777Z" fill="white"/>
        <path d="M20.4839 4.51222C20.0584 4.08674 19.4795 3.84611 18.8727 3.84611C18.2693 3.84262 17.6869 4.08326 17.2615 4.51222L9.42161 12.3521C9.35535 12.4183 9.30653 12.4985 9.27863 12.5857L8.0894 16.1569C7.98477 16.4673 8.15566 16.8056 8.46604 16.9102C8.52533 16.9311 8.59159 16.9416 8.65437 16.9416C8.71714 16.9416 8.7834 16.9311 8.84269 16.9102L12.4139 15.721C12.5011 15.6931 12.5813 15.6408 12.6475 15.578L20.4874 7.73813C21.3732 6.84534 21.3767 5.40501 20.4839 4.51222ZM19.6434 6.89416L11.9047 14.6329L9.5925 15.4036L10.3632 13.0949L18.1054 5.35619C18.5309 4.93071 19.2214 4.93071 19.6434 5.35619C19.8457 5.55846 19.9608 5.83397 19.9608 6.12343C19.9643 6.41289 19.8492 6.69189 19.6434 6.89416Z" fill="white"/>
    </g>
    
    <defs>
        <filter id="filter0_d" x="0" y="0" width="25" height="27.5" filterUnits="userSpaceOnUse" color-interpolation-filters="sRGB">
            <feFlood flood-opacity="0" result="BackgroundImageFix"/>
            <feColorMatrix in="SourceAlpha" type="matrix" values="0 0 0 0 0 0 0 0 0 0 0 0 0 0 0 0 0 0 127 0"/>
            <feOffset dy="2.5"/>
            <feColorMatrix type="matrix" values="0 0 0 0 0.243137 0 0 0 0 0.12549 0 0 0 0 0.545098 0 0 0 1 0"/>
            <feBlend mode="normal" in2="BackgroundImageFix" result="effect1_dropShadow"/>
            <feBlend mode="normal" in="SourceGraphic" in2="effect1_dropShadow" result="shape"/>
        </filter>
    </defs>
</svg>
