<svg width="100" height="44" viewBox="0 0 100 44" fill="none" xmlns="http://www.w3.org/2000/svg">
<g clip-path="url(#clip0)">
<path d="M21.9152 43.3229C33.6796 43.3229 43.2166 33.7625 43.2166 21.9691C43.2166 10.1757 33.6796 0.615234 21.9152 0.615234C10.1507 0.615234 0.61377 10.1757 0.61377 21.9691C0.61377 33.7625 10.1507 43.3229 21.9152 43.3229Z" fill="white" stroke="black" stroke-width="2" stroke-miterlimit="10"/>
<path d="M78.0233 43.3229C89.7878 43.3229 99.3247 33.7625 99.3247 21.9691C99.3247 10.1757 89.7878 0.615234 78.0233 0.615234C66.2589 0.615234 56.7219 10.1757 56.7219 21.9691C56.7219 33.7625 66.2589 43.3229 78.0233 43.3229Z" fill="white" stroke="black" stroke-width="2" stroke-miterlimit="10"/>
<path d="M85.6352 38.5228C92.5854 38.5228 98.2196 32.8747 98.2196 25.9074C98.2196 18.9401 92.5854 13.292 85.6352 13.292C78.685 13.292 73.0508 18.9401 73.0508 25.9074C73.0508 32.8747 78.685 38.5228 85.6352 38.5228Z" fill="black" class="pupil"/>
<path d="M29.5273 38.5228C36.4775 38.5228 42.1117 32.8747 42.1117 25.9074C42.1117 18.9401 36.4775 13.292 29.5273 13.292C22.5771 13.292 16.9429 18.9401 16.9429 25.9074C16.9429 32.8747 22.5771 38.5228 29.5273 38.5228Z" fill="black" class="pupil"/>
<path d="M24.6163 19.0766C26.7861 19.0766 28.5451 17.3133 28.5451 15.1382C28.5451 12.963 26.7861 11.1997 24.6163 11.1997C22.4465 11.1997 20.6875 12.963 20.6875 15.1382C20.6875 17.3133 22.4465 19.0766 24.6163 19.0766Z" fill="white" class="glanslinks"/>
<path d="M80.4788 19.0766C82.6486 19.0766 84.4076 17.3133 84.4076 15.1382C84.4076 12.963 82.6486 11.1997 80.4788 11.1997C78.309 11.1997 76.55 12.963 76.55 15.1382C76.55 17.3133 78.309 19.0766 80.4788 19.0766Z" fill="white" class="glansrechts"/>
<path opacity="0.3" d="M39.6562 23.4462C39.6562 30.4 34.0085 36.0616 27.0717 36.0616C24.2479 36.0616 21.6083 35.077 19.4597 33.477C21.731 36.5539 25.4143 38.5231 29.5272 38.5231C36.464 38.5231 42.1117 32.8616 42.1117 25.9077C42.1117 21.7847 40.1473 18.1539 37.0779 15.8154C38.674 17.9693 39.6562 20.6154 39.6562 23.4462Z" fill="white" class="schaduwlinks"/>
<path opacity="0.3" d="M95.7641 23.4462C95.7641 30.4 90.1164 36.0616 83.1797 36.0616C80.3558 36.0616 77.7162 35.077 75.5676 33.477C77.839 36.5539 81.5222 38.5231 85.6352 38.5231C92.5719 38.5231 98.2196 32.8616 98.2196 25.9077C98.2196 21.7847 96.2552 18.1539 93.1858 15.8154C94.8433 17.9693 95.7641 20.6154 95.7641 23.4462Z" fill="white" class="schaduwrechts"/>
</g>
<defs>
<clipPath id="clip0">
<rect width="100" height="44" fill="white"/>
</clipPath>
</defs>
</svg>
