<svg width="45px" height="44px" viewBox="0 0 45 44" fill="none" xmlns="http://www.w3.org/2000/svg">
    <g>
        <path d="M21.9153 43.3232C33.6797 43.3232 43.2167 33.7627 43.2167 21.9693C43.2167 10.1759 33.6797 0.615479 21.9153 0.615479C10.1508 0.615479 0.613861 10.1759 0.613861 21.9693C0.613861 33.7627 10.1508 43.3232 21.9153 43.3232Z" fill="white" stroke="black" stroke-width="2" stroke-miterlimit="10"/>
        <path d="M29.5273 38.5233C36.4775 38.5233 42.1117 32.8751 42.1117 25.9079C42.1117 18.9406 36.4775 13.2925 29.5273 13.2925C22.5771 13.2925 16.9429 18.9406 16.9429 25.9079C16.9429 32.8751 22.5771 38.5233 29.5273 38.5233Z" fill="black"/>
        <path d="M24.6163 19.0771C26.7861 19.0771 28.5451 17.3138 28.5451 15.1387C28.5451 12.9635 26.7861 11.2002 24.6163 11.2002C22.4465 11.2002 20.6875 12.9635 20.6875 15.1387C20.6875 17.3138 22.4465 19.0771 24.6163 19.0771Z" fill="white"/>
    </g>
</svg>