<svg width="54" height="44" viewBox="0 0 54 44" fill="none" xmlns="http://www.w3.org/2000/svg">
    <g>
        <path d="M37.2613 7.06246C28.9426 -1.25626 15.4387 -1.23966 7.09946 7.09954C-1.23974 15.4387 -1.25634 28.9426 7.06238 37.2614C15.3811 45.5801 28.885 45.5635 37.2242 37.2243C45.5634 28.8851 45.58 15.3812 37.2613 7.06246Z" fill="white" stroke="black" stroke-width="2" stroke-miterlimit="10"/>
        <path d="M30.7394 4.89857C25.8249 -0.0159431 17.8471 -0.00613472 12.9205 4.92048C7.99389 9.84709 7.98408 17.8249 12.8986 22.7394C17.8131 27.6539 25.7909 27.6441 30.7175 22.7175C35.6442 17.7909 35.654 9.81309 30.7394 4.89857Z" fill="black"/>
        <path d="M20.4617 22.1216C18.9274 20.5873 16.4367 20.5904 14.8987 22.1284C13.3606 23.6665 13.3576 26.1571 14.8918 27.6914C16.4261 29.2257 18.9168 29.2226 20.4548 27.6846C21.9929 26.1465 21.996 23.6559 20.4617 22.1216Z" fill="white"/>
        <path opacity="0.3" d="M12.9162 8.39741C17.8334 3.4803 25.8301 3.47047 30.7352 8.37551C32.7319 10.3722 33.9022 12.935 34.2901 15.5856C34.8597 11.8038 33.6478 7.80694 30.7395 4.89864C25.8344 -0.00639878 17.8376 0.00342986 12.9205 4.92054C10.0051 7.836 8.82675 11.7924 9.34358 15.6163C9.73799 12.9647 10.9146 10.3991 12.9162 8.39741Z" fill="white"/>
    </g>
</svg>
