<svg width="231" height="900" viewBox="0 0 231 900" fill="none" xmlns="http://www.w3.org/2000/svg">
<path d="M0 0H231V860C231 882.091 213.091 900 191 900H0V0Z" fill="white"/>
<path d="M0 0H231V220H0V0Z" fill="#D09F47"/>
<path d="M231 213.899C231 201.252 179.289 191 115.5 191C51.7111 191 0 201.252 0 213.899V222.101C0 234.748 51.7111 245 115.5 245C179.289 245 231 234.748 231 222.101V213.899Z" fill="white"/>
<path d="M217.248 220.76C217.248 234.063 171.521 243.58 115.124 243.58C58.7268 243.58 13 234.056 13 220.76C13 207.465 58.7175 196.678 115.124 196.678C171.53 196.678 217.248 207.457 217.248 220.76Z" fill="url(#paint0_radial)"/>
<path d="M83.9759 229.786C87.642 229.786 90.614 228.551 90.614 227.027C90.614 225.503 87.642 224.268 83.9759 224.268C80.3098 224.268 77.3379 225.503 77.3379 227.027C77.3379 228.551 80.3098 229.786 83.9759 229.786Z" fill="#E6D6C6"/>
<path d="M71.7213 222.428C73.6954 222.428 75.2956 221.811 75.2956 221.049C75.2956 220.287 73.6954 219.669 71.7213 219.669C69.7473 219.669 68.147 220.287 68.147 221.049C68.147 221.811 69.7473 222.428 71.7213 222.428Z" fill="#E6D6C6"/>
<path opacity="0.5" d="M145.979 50.6452C145.752 50.5883 145.497 50.5152 145.224 50.4422C144.942 50.3934 144.633 50.3447 144.296 50.2879C143.95 50.231 143.577 50.1742 143.186 50.1173C142.785 50.0767 142.358 50.0605 141.903 50.0361C140.974 49.9549 139.964 50.028 138.809 50.0849C137.689 50.2148 136.424 50.361 135.132 50.702C132.511 51.3273 129.599 52.456 126.715 54.2424C123.839 56.0289 120.954 58.4406 118.561 61.64C117.979 62.452 117.369 63.2722 116.868 64.1735C116.614 64.6202 116.322 65.083 116.104 65.5296C115.876 65.9844 115.658 66.4472 115.431 66.9101C114.584 68.7777 113.847 70.7672 113.365 72.8379C112.855 74.9004 112.528 77.0523 112.409 79.2123C112.273 81.3804 112.318 83.5891 112.546 85.7735C112.974 90.1747 114.066 94.5352 115.622 98.774C117.178 102.964 119.052 106.772 120.918 110.272C121.437 111.239 121.946 112.172 122.456 113.09C118.17 111.539 113.41 110.654 108.469 110.565C105.02 110.492 101.435 110.808 97.8948 111.515C94.364 112.213 90.8514 113.334 87.4389 114.844C80.6685 117.897 74.2256 122.672 69.9031 129.298C65.6261 135.908 63.9153 143.468 64.9618 150.671C65.4441 154.26 66.6999 157.776 68.5199 160.902C70.3399 164.029 72.7059 166.716 75.3085 168.933C85.901 177.776 99.1688 179.335 108.542 177.987C113.31 177.321 117.369 176.111 120.699 174.764C124.048 173.424 126.705 171.995 128.789 170.736C129.836 170.119 130.719 169.51 131.492 169.006C132.247 168.47 132.875 168.024 133.376 167.65C134.359 166.887 134.868 166.481 134.868 166.481C134.868 166.481 134.222 166.676 132.994 167.041C132.375 167.212 131.619 167.423 130.719 167.675C129.809 167.894 128.789 168.178 127.615 168.43C125.286 168.958 122.419 169.493 119.134 169.826C115.858 170.176 112.145 170.265 108.251 169.883C106.303 169.672 104.31 169.339 102.336 168.852C100.388 168.381 98.4317 167.691 96.5298 166.838C92.7351 165.133 89.1224 162.664 86.5107 159.603C85.2094 158.076 84.1629 156.42 83.4531 154.69C82.7433 152.969 82.3156 151.134 82.2519 149.185C82.0426 145.311 83.2438 141.064 85.5825 137.467C87.9212 133.845 91.5794 130.768 95.7108 128.494C97.7947 127.382 99.9969 126.424 102.254 125.717C104.501 125.011 106.758 124.523 109.042 124.247C113.592 123.695 118.024 124.052 121.801 125.189C123.684 125.75 125.45 126.529 126.978 127.439C128.334 128.178 129.617 129.412 130.746 130.679C131.792 131.832 132.63 133.123 133.394 134.39C133.603 134.958 133.803 135.518 133.985 136.07C135.578 140.837 136.124 144.986 136.106 147.95C136.106 148.324 136.106 148.673 136.106 149.006C136.088 149.339 136.069 149.648 136.06 149.932C136.042 150.224 136.033 150.492 136.024 150.744C135.997 150.987 135.969 151.215 135.951 151.41C135.869 152.222 135.824 152.644 135.824 152.644C135.824 152.644 136.279 152.214 137.18 151.312C137.535 150.825 138.053 150.224 138.517 149.445C138.736 149.047 138.972 148.616 139.227 148.153C139.364 147.894 139.473 147.609 139.591 147.325C141.084 144.516 142.549 140.463 143.049 135.405C143.349 132.481 143.34 129.249 142.949 125.831C142.549 122.404 141.784 118.823 140.729 115.234C138.654 108.015 135.478 100.763 132.857 93.7151C130.273 86.7317 128.598 80.2679 128.553 74.5594C128.516 73.1221 128.635 71.7498 128.808 70.4099C128.862 70.077 128.908 69.744 128.962 69.4111C129.008 69.0782 129.09 68.794 129.153 68.4773C129.253 67.852 129.463 67.2592 129.636 66.6502C130.391 64.2304 131.619 62.0054 133.021 60.0809C135.842 56.2319 139.482 53.7146 142.403 52.5372C142.767 52.3829 143.113 52.2286 143.45 52.0987C143.786 51.985 144.114 51.8876 144.405 51.7901C144.705 51.6927 144.987 51.6034 145.251 51.514C145.515 51.4572 145.752 51.4004 145.97 51.3516C146.853 51.1486 147.317 51.0431 147.317 51.0431C147.317 51.0431 146.853 50.8969 145.979 50.6452Z" fill="white"/>
<g opacity="0.5">
<path opacity="0.5" d="M161.203 160.797C159.265 164.037 157.336 166.838 156.053 169.51C155.398 170.85 154.924 172.116 154.588 173.432C154.251 174.755 154.042 176.128 153.932 177.516C153.705 180.293 153.814 183.127 153.887 185.856C153.96 188.576 153.987 191.248 153.732 193.676C153.295 198.548 151.694 202.421 150.038 204.687C149.655 205.271 149.219 205.734 148.882 206.148C148.5 206.538 148.19 206.871 147.908 207.115C147.344 207.594 147.044 207.846 147.044 207.846C147.044 207.846 147.235 207.521 147.59 206.912C147.763 206.603 147.936 206.213 148.154 205.767C148.327 205.296 148.573 204.776 148.745 204.159C149.537 201.731 149.874 198.126 149.191 193.733C148.882 191.532 148.318 189.145 147.708 186.457C147.117 183.777 146.47 180.813 146.261 177.468C146.161 175.795 146.188 174.025 146.452 172.189C146.707 170.346 147.235 168.446 147.945 166.692C149.355 163.135 151.403 159.985 153.177 156.988C154.897 154.024 156.426 151.166 157.591 148.21C158.774 145.279 159.738 142.38 160.457 139.554C161.84 133.902 162.414 128.6 162.386 124.093C162.368 119.594 161.95 115.875 161.467 113.334C161.413 113.009 161.367 112.708 161.322 112.424C161.258 112.14 161.203 111.88 161.158 111.637C161.058 111.141 160.967 110.727 160.903 110.386C160.767 109.704 160.694 109.347 160.694 109.347C160.694 109.347 160.894 109.663 161.267 110.264C161.449 110.573 161.686 110.946 161.95 111.393C162.086 111.62 162.232 111.864 162.386 112.116C162.523 112.384 162.669 112.66 162.823 112.96C163.133 113.569 163.469 114.235 163.842 114.974C164.17 115.729 164.516 116.549 164.898 117.434C165.608 119.221 166.309 121.3 166.891 123.646C168.083 128.34 168.684 134.154 168.019 140.618C167.664 143.842 166.946 147.212 165.844 150.622C164.789 154.041 163.124 157.492 161.203 160.797Z" fill="white"/>
</g>
<defs>
<radialGradient id="paint0_radial" cx="0" cy="0" r="1" gradientUnits="userSpaceOnUse" gradientTransform="translate(109.16 197.502) rotate(-88.9509) scale(51.9672 164.506)">
<stop stop-color="#735442"/>
<stop offset="0.0497" stop-color="#785844"/>
<stop offset="0.277" stop-color="#8D664C"/>
<stop offset="0.4982" stop-color="#9A6F51"/>
<stop offset="0.7048" stop-color="#9F7353"/>
</radialGradient>
</defs>
</svg>
