<svg width="89" height="93" viewBox="0 0 89 93" fill="none" xmlns="http://www.w3.org/2000/svg">
    <rect x="1.25" y="1.25" width="86.5" height="90.5" rx="18.75" fill="white" stroke="#6E47D0" stroke-width="2.5"/>
    <path d="M72.0703 31.0109C70.9125 29.8152 69.3137 29.1087 67.4943 29.1087H58.3422V29C58.3422 27.6413 57.7909 26.337 56.8536 25.4674C55.9163 24.5435 54.6483 24 53.27 24H36.73C35.2966 24 34.0285 24.5435 33.0913 25.4674C32.154 26.3913 31.6027 27.6413 31.6027 29V29.1087H22.5057C20.6863 29.1087 19.0875 29.8152 17.9297 31.0109C16.7719 32.1522 16 33.7826 16 35.5217V62.587C16 64.3804 16.7167 65.9565 17.9297 67.0978C19.0875 68.2391 20.7414 69 22.5057 69H67.4943C69.3137 69 70.9125 68.2935 72.0703 67.0978C73.2281 65.9565 74 64.3261 74 62.587V35.5217C74 33.7283 73.2833 32.1522 72.0703 31.0109ZM71.1331 62.587H71.0779C71.0779 63.5652 70.692 64.4348 70.0304 65.087C69.3688 65.7391 68.4867 66.1196 67.4943 66.1196H22.5057C21.5133 66.1196 20.6312 65.7391 19.9696 65.087C19.308 64.4348 18.9221 63.5652 18.9221 62.587V35.5217C18.9221 34.5435 19.308 33.6739 19.9696 33.0217C20.6312 32.3696 21.5133 31.9891 22.5057 31.9891H33.1464C33.9734 31.9891 34.635 31.337 34.635 30.5217V28.9457C34.635 28.3478 34.8555 27.8043 35.2414 27.4239C35.6274 27.0435 36.1787 26.8261 36.7852 26.8261H53.27C53.8764 26.8261 54.4278 27.0435 54.8137 27.4239C55.1996 27.8043 55.4202 28.3478 55.4202 28.9457V30.5217C55.4202 31.337 56.0817 31.9891 56.9087 31.9891H67.5494C68.5418 31.9891 69.424 32.3696 70.0856 33.0217C70.7471 33.6739 71.1331 34.5435 71.1331 35.5217V62.587Z" fill="#6E47D0"/>
    <path d="M45 35.6848C41.2509 35.6848 37.8327 37.2066 35.4068 39.5979C32.9258 42.0435 31.4373 45.3587 31.4373 49.0544C31.4373 52.75 32.981 56.1196 35.4068 58.5109C37.8878 60.9566 41.2509 62.4239 45 62.4239C48.749 62.4239 52.1673 60.9022 54.5932 58.5109C57.0741 56.0653 58.5627 52.75 58.5627 49.0544C58.5627 45.3587 57.019 41.9892 54.5932 39.5979C52.1673 37.2066 48.749 35.6848 45 35.6848ZM52.4981 56.5C50.5684 58.3479 47.9221 59.5435 45 59.5435C42.0779 59.5435 39.4316 58.3479 37.5019 56.5C35.5722 54.5979 34.4144 51.9892 34.4144 49.1087C34.4144 46.2283 35.6274 43.6196 37.5019 41.7174C39.4316 39.8152 42.0779 38.6739 45 38.6739C47.9221 38.6739 50.5684 39.8696 52.4981 41.7174C54.4278 43.6196 55.5856 46.2283 55.5856 49.1087C55.6407 51.9892 54.4278 54.5979 52.4981 56.5Z" fill="#6E47D0"/>
    <path d="M64.6272 40.9565C66.1192 40.9565 67.3287 39.7642 67.3287 38.2934C67.3287 36.8227 66.1192 35.6304 64.6272 35.6304C63.1352 35.6304 61.9257 36.8227 61.9257 38.2934C61.9257 39.7642 63.1352 40.9565 64.6272 40.9565Z" fill="#6E47D0"/>
</svg>
