<svg xmlns="http://www.w3.org/2000/svg" xmlns:xlink="http://www.w3.org/1999/xlink" viewBox="0 0 231 60.84"><defs><style>.cls-1{fill:#fff;}.cls-2{fill:url(#Naamloos_verloop_3);}.cls-3{fill:#e6d6c6;}</style><radialGradient id="Naamloos_verloop_3" cx="-34.63" cy="310.73" r="1" gradientTransform="matrix(0.96, -58.26, -166.1, -2.74, 51755.91, -1161.3)" gradientUnits="userSpaceOnUse"><stop offset="0" stop-color="#735442"/><stop offset="0.05" stop-color="#785844"/><stop offset="0.28" stop-color="#8d664c"/><stop offset="0.5" stop-color="#9a6f51"/><stop offset="0.7" stop-color="#9f7353"/></radialGradient></defs><g id="Laag_2" data-name="Laag 2"><g id="Laag_1-2" data-name="Laag 1"><path class="cls-1" d="M231,25.8C231,11.55,179.29,0,115.5,0S0,11.55,0,25.8V35c0,14.25,51.71,25.8,115.5,25.8S231,49.29,231,35Z"/><path class="cls-2" d="M218.62,31.13c0,14.92-46.17,25.59-103.12,25.59S12.38,46,12.38,31.13s46.16-27,103.12-27S218.62,16.21,218.62,31.13Z"/><path class="cls-3" d="M84.05,41.25c3.7,0,6.7-1.39,6.7-3.09s-3-3.1-6.7-3.1-6.71,1.39-6.71,3.1S80.34,41.25,84.05,41.25Z"/><path class="cls-3" d="M71.67,33c2,0,3.61-.69,3.61-1.55s-1.61-1.54-3.61-1.54-3.61.69-3.61,1.54S69.68,33,71.67,33Z"/></g></g></svg>