<svg xmlns="http://www.w3.org/2000/svg" xmlns:xlink="http://www.w3.org/1999/xlink" viewBox="0 0 231.79 871.19"><defs><style>.cls-1{fill:#d09f47;}.cls-2{fill:#fff;}.cls-3{fill:url(#Naamloos_verloop);}.cls-4{fill:#e6d6c6;}.cls-5{opacity:0.5;}</style><radialGradient id="Naamloos_verloop" cx="-341.06" cy="981.45" r="1" gradientTransform="matrix(0.96, -58.26, -166.1, -2.74, 163458.35, -17006.82)" gradientUnits="userSpaceOnUse"><stop offset="0" stop-color="#735442"/><stop offset="0.05" stop-color="#785844"/><stop offset="0.28" stop-color="#8d664c"/><stop offset="0.5" stop-color="#9a6f51"/><stop offset="0.7" stop-color="#9f7353"/></radialGradient></defs><g id="Laag_2" data-name="Laag 2"><g id="Laag_1-2" data-name="Laag 1"><rect class="cls-1" width="231.79" height="200"/><g id="Laag_2-2" data-name="Laag 2"><g id="Laag_1-2-2" data-name="Laag 1-2"><g id="sidebarCoffee"><path class="cls-2" d="M115.89,169.57C52.1,169.57.39,177.16.39,186.51V871.19h231V186.51C231.39,177.16,179.68,169.57,115.89,169.57Z"/><path class="cls-3" d="M219,200.7c0,14.92-46.17,25.6-103.12,25.6S12.77,215.57,12.77,200.7s46.16-27,103.12-27S219,185.78,219,200.7Z"/><path class="cls-4" d="M84.44,210.82c3.7,0,6.7-1.38,6.7-3.09s-3-3.09-6.7-3.09-6.71,1.39-6.71,3.09S80.73,210.82,84.44,210.82Z"/><path class="cls-4" d="M72.06,202.57c2,0,3.61-.68,3.61-1.54s-1.61-1.55-3.61-1.55-3.61.7-3.61,1.55S70.07,202.57,72.06,202.57Z"/></g></g></g><g class="cls-5"><path class="cls-2" d="M140.54,46.52l-.63-.19-.78-.14L138.2,46c-.33,0-.68-.06-1.07-.08a16.26,16.26,0,0,0-2.58,0,19.08,19.08,0,0,0-3.07.58,22.67,22.67,0,0,0-7,3.31,26.16,26.16,0,0,0-6.81,6.93,25.17,25.17,0,0,0-1.42,2.37c-.21.42-.46.85-.64,1.28L115,61.76a31.75,31.75,0,0,0-1.73,5.55,36.66,36.66,0,0,0-.8,6,40.83,40.83,0,0,0,.12,6.15,54.4,54.4,0,0,0,2.56,12.17,94.47,94.47,0,0,0,4.43,10.77q.64,1.35,1.29,2.64a33.15,33.15,0,0,0-11.69-2.37,37.14,37.14,0,0,0-8.83.89,38.75,38.75,0,0,0-8.74,3.12A35.13,35.13,0,0,0,77,120.18a32.06,32.06,0,0,0-4.13,20,28.11,28.11,0,0,0,3,9.58,28.51,28.51,0,0,0,5.68,7.52,33.22,33.22,0,0,0,27.77,8.48,39.19,39.19,0,0,0,10.16-3,43.74,43.74,0,0,0,6.77-3.77c.87-.57,1.61-1.15,2.25-1.62s1.16-.92,1.58-1.27l1.25-1.1-1.57.53-1.9.59c-.75.21-1.61.48-2.59.71a53.48,53.48,0,0,1-7.09,1.31,41.08,41.08,0,0,1-9.1.05,33.88,33.88,0,0,1-4.94-1,25.87,25.87,0,0,1-4.85-1.89,24.23,24.23,0,0,1-8.37-6.78A17.68,17.68,0,0,1,88.3,144a16.19,16.19,0,0,1-1-5.15,20.57,20.57,0,0,1,2.78-11,24.62,24.62,0,0,1,8.47-8.41,30.39,30.39,0,0,1,5.47-2.6,28,28,0,0,1,5.67-1.37,23.71,23.71,0,0,1,10.66.88,18.5,18.5,0,0,1,4.33,2.1,13.22,13.22,0,0,1,3.14,3A21.77,21.77,0,0,1,130,125c.17.53.34,1.06.49,1.57a39.72,39.72,0,0,1,1.78,11.13v1l0,.87,0,.76-.06.63c-.08.75-.11,1.15-.11,1.15s.38-.4,1.13-1.24c.29-.46.72-1,1.11-1.75l.59-1.21c.12-.25.21-.51.31-.78a33.1,33.1,0,0,0,2.89-11.16,46.61,46.61,0,0,0-.08-9,67.56,67.56,0,0,0-1.86-9.92c-1.73-6.76-4.39-13.56-6.57-20.16S126,74.25,126,68.91A29,29,0,0,1,126.2,65l.13-.93c0-.32.11-.58.16-.88a17,17,0,0,1,.4-1.71,22.49,22.49,0,0,1,2.83-6.15,19.57,19.57,0,0,1,7.84-7.07l.87-.41.8-.28.7-.26.6-.15,1.13-.29Z"/><path class="cls-2" d="M153.26,149.68c-1.61,3-3.23,5.66-4.3,8.16a19.88,19.88,0,0,0-1.23,3.68,26.63,26.63,0,0,0-.55,3.82c-.19,2.6-.09,5.25,0,7.81a63,63,0,0,1-.12,7.33,23,23,0,0,1-3.09,10.31c-.32.54-.69,1-1,1.37s-.58.67-.81.91l-.72.68.45-.87c.14-.29.29-.66.47-1.08s.35-.92.5-1.5a24.31,24.31,0,0,0,.37-9.77c-.26-2.06-.73-4.29-1.24-6.81a59.2,59.2,0,0,1-1.2-8.41,27.75,27.75,0,0,1,.16-4.95,23.74,23.74,0,0,1,1.25-5.15,67.24,67.24,0,0,1,4.37-9.09,63.18,63.18,0,0,0,3.69-8.22,65.67,65.67,0,0,0,4-22.58,64.77,64.77,0,0,0-.77-10.08l-.12-.85-.14-.74-.21-1.17-.18-1,.48.86.58,1,.36.68.37.8.85,1.88.88,2.3A52.37,52.37,0,0,1,158,114.9a51.06,51.06,0,0,1,.94,15.89,51.86,51.86,0,0,1-1.81,9.37A50,50,0,0,1,153.26,149.68Z"/></g></g></g></svg>