<svg xmlns="http://www.w3.org/2000/svg" viewBox="0 0 115.46 445.76"><defs><style>.cls-1{fill:#60360d;}.cls-2{fill:#fff;opacity:0.4;}.cls-3{fill:#f7eee7;}.cls-4{fill:#af3100;}.cls-5,.cls-6{fill:#7f7f7f;}.cls-5{opacity:0.2;}.cls-7{fill:#db8f2a;}</style></defs><g id="Laag_2" data-name="Laag 2"><g id="Latte_Machiato" data-name="Latte Machiato"><path class="cls-1" d="M96.6,165.38c4.51,9.89,16.87,29.6,18.25,39.58s0,33.56,0,40.28-1.18,150.59-.68,152.76.17,16.47-.17,23.46-3.32,12.15-5.15,13.65-8.49,6.32-21.64,8.32a177.64,177.64,0,0,1-28.53,2.33c-7.09,0-26.06-1.5-31.88-2.66s-17-4.16-20.48-9A33.32,33.32,0,0,1,.5,419.3c-.67-4.66-.67-17.48,0-20.8s1.33-14,1.16-20.31S2,237.53,2,232.91.51,208.28,5.64,197.66s15.19-24.52,16.65-30.56,4.39-62.77,4.76-67.53,6.22-47.95,7.14-52.71S36.93,36.61,36.57,35s-.73-2.59-1.79-3.07a3.22,3.22,0,0,1-2.14-3.8c.47-2.26,4.39-15.56,3.92-16.87a15.22,15.22,0,0,0-2-3.68c-.6-.72-.48-3,.47-4.52s2.5-3,4-3,37.78-.12,39.09,0S81,.17,81.7,1.12s2.38,3.45,2.38,4.28.23,1.9-.48,2.26A2.71,2.71,0,0,0,82.06,10a33.73,33.73,0,0,0,1,7.37c.71,2.49,2.73,10,2.73,11.16s.36,2.5-.83,3.09a3.66,3.66,0,0,0-2,2.38c0,.59,4.75,33.14,4.75,33.14s4,32.2,4.28,34.46,2.73,40.74,2.85,45.61S95.67,163.32,96.6,165.38Z"/><path class="cls-2" d="M42.12,207.86l-13-12.62a.89.89,0,0,0-1.41.22c-1.53,2.89-5.67,11.11-6.37,16A133.84,133.84,0,0,0,20,228.26c0,3.91,1.74,4.34,3.91,4.34s-1.56.33-2.19,1.06-.82,1.63-.82,5.53.13,33.26,0,36.49.27,31.1.27,40.82-.2,66.31-.2,70.68.6,11.12.2,12.9S19.42,407,20,410.61s2,11.71,2.36,14.09.6,2.38,2.38,1.79,5.16-1.79,6.26-3.18,2.28-1.59,4.26-3.37,3.18-1.59,3.78-4.37,1-36.93,1-43.28,1.19-61,1.19-64.92.2-19.65-.4-21-2.38-1.79-1.59-3.58A23.21,23.21,0,0,0,41,275.41c.2-2.78.2-38.12-.59-39.51s-2.59-.59-4.37-1-3,.2-3.38-.79,5.16-.6,6.55-1.39.6,0,.8-3,.67-12.55.93-14S42.66,211.62,42.12,207.86Z"/><path class="cls-2" d="M34.22,176.41c.67.75,1.34-.25,2-.67s.48.47.9.51,1.43-2.05,2.83-2.82,6.61-3.21,6.61-3.21A3.49,3.49,0,0,0,48.24,168c.07-.88,0-8.39,0-10.17s-.16-11.22-.16-12.38.11-12.15.19-13.35.12-10.09.24-11.1.19-8.28.23-9.59.35-9,.42-10.41.31-9.94.35-10.87.2-9.21.23-10.41.51-9,.62-10.87.08-3.94.2-4.21.15.15.34.15.28,1.09.2-.93.27-14,.31-14.77.46-5.23.38-6.66-.46-3.71-.42-4.64-.12-1,.15-1.32.78-.11.85-.77a3.82,3.82,0,0,0,0-1.78c-.19-.77.12-.93-.34-1.08a17.4,17.4,0,0,0-2.4-.27,32.32,32.32,0,0,0-3.41,0,7.49,7.49,0,0,0-2.43.19,3.61,3.61,0,0,0-1.51,1.16c-.23.43.15,1.08.42,1.43s.68.23.65.74-1.79,23.68-2.76,30.27-2.69,29.61-2.87,32-2,52.91-2.12,54.55-.18,12.59-.45,13.7-.66,2-.93,3.31a7.78,7.78,0,0,0-.44,2.92C34,173.69,33.69,175.81,34.22,176.41Z"/><path class="cls-2" d="M51.1,30.06c1-.51.59-1.35.43-2.7s-.68-1.43-1.77-1.85-1.69-.76-1.77-2.19.25-3.2,0-4.21.39-2,0-3.28-1.67-1.6-1.51-2.44.59-1.27,1.86-1.35,3.28.34,3.7-.34.84-1.18,0-1.68a10.68,10.68,0,0,0-3.87-1c-1.52-.17-3.88-.09-4.46.76s-1,1.76-.59,2.44.34,1.68,0,3.28-.68,4.13-.85,5.31a30.92,30.92,0,0,0-.42,4.54c.09,1,.57,1,0,1.6a3.91,3.91,0,0,0-.49,3.12c.33.42,4.46.67,5.51.59S49.84,30.73,51.1,30.06Z"/><path class="cls-3" d="M105.05,362.65l-17.58,2a249.74,249.74,0,0,1-57.58,0l-17.59-2V243.55l17.59,2a249.74,249.74,0,0,0,57.58,0l17.58-2Z"/><path class="cls-4" d="M21.57,297.67V279H16.91v-2.34h14V279H26.25v18.66Z"/><path class="cls-4" d="M30.45,297.67v-21h9.34a4.71,4.71,0,0,1,4.66,4.66v1.27a5,5,0,0,1-1.07,3,4.17,4.17,0,0,1-3.59,1.45h2.32a2.36,2.36,0,0,1,2.34,2.34v8.27H39.79v-7a2.37,2.37,0,0,0-2.34-2.34H35.11v9.34ZM35.11,286h2.34a2.37,2.37,0,0,0,2.34-2.34v-2.34a2.22,2.22,0,0,0-.7-1.64,2.28,2.28,0,0,0-1.64-.68H35.11Z"/><path class="cls-4" d="M48.63,297.67v-21H53.3v21Z"/><path class="cls-4" d="M57.51,297.67v-21h9.34a4.71,4.71,0,0,1,4.66,4.66v2.34a4.69,4.69,0,0,1-4.66,4.66H62.17v9.34ZM62.17,286h2.34a2.25,2.25,0,0,0,1.64-.69,2.28,2.28,0,0,0,.7-1.65v-2.34A2.36,2.36,0,0,0,64.51,279H62.17Z"/><path class="cls-4" d="M73.37,297.67v-21H85V279H78v7h4.69v2.32H78v7h7v2.34Z"/><path class="cls-4" d="M86.91,297.67v-21h4.65v18.66h7v2.34Z"/><path class="cls-5" d="M59.8,360.74c8.44-.46,15.12-6,15.12-12.74a9.79,9.79,0,0,0-.23-2l-1-9.44a1.67,1.67,0,0,0-1.46-1.48l-3-.37a84.57,84.57,0,0,0-21.09,0l-3,.37a1.69,1.69,0,0,0-1.48,1.49l-1,9.43a10.52,10.52,0,0,0-.22,2c0,6.76,6.67,12.28,15.11,12.74l.32,3.68a8.07,8.07,0,0,1,0,1.39l0,.54h1.71l-.05-.54a8.18,8.18,0,0,1,0-1.4Zm-1.12,0Z"/><path class="cls-6" d="M57.06,366.35h0Z"/><path class="cls-7" d="M59.71,358.83c7.73-.38,13.83-4.93,13.83-10.51a7.87,7.87,0,0,0-.2-1.68l-1-8.19a.73.73,0,0,0-.85-.58h0a46.65,46.65,0,0,1-12.88,2.06,43,43,0,0,1-12.72-2.06h0a.72.72,0,0,0-.84.58l-1,8.19a7.29,7.29,0,0,0-.21,1.68c0,5.58,6.11,10.13,13.84,10.51Zm-1,0Z"/></g></g></svg>