<svg xmlns="http://www.w3.org/2000/svg" xmlns:xlink="http://www.w3.org/1999/xlink" viewBox="0 0 237.7 391"><defs><style>.cls-1{opacity:0.2;}.cls-2,.cls-7{fill:#919191;}.cls-3{fill:#1d1d1b;}.cls-4{fill:url(#Naamloos_verloop_144);}.cls-5{opacity:0.5;}.cls-6{fill:#fffefd;}.cls-12,.cls-7{opacity:0.1;}.cls-10,.cls-8,.cls-9{opacity:0.6;}.cls-8{fill:url(#Naamloos_verloop_137);}.cls-9{fill:url(#Naamloos_verloop_137-2);}.cls-10{fill:url(#Naamloos_verloop_137-3);}.cls-11{opacity:0.4;}</style><linearGradient id="Naamloos_verloop_144" x1="112.56" y1="353.59" x2="112.56" gradientUnits="userSpaceOnUse"><stop offset="0.12" stop-color="#fff4e9"/><stop offset="0.19" stop-color="#e5d6c5"/><stop offset="0.51" stop-color="#8e6447"/><stop offset="0.84" stop-color="#976c4e"/><stop offset="1" stop-color="#9e7253"/></linearGradient><linearGradient id="Naamloos_verloop_137" x1="114.76" y1="349.55" x2="114.76" y2="155.67" gradientUnits="userSpaceOnUse"><stop offset="0.12" stop-color="#fff4e9"/><stop offset="0.43" stop-color="#e5d6c5"/><stop offset="0.71" stop-color="#8e6447"/><stop offset="0.91" stop-color="#976c4e"/><stop offset="1" stop-color="#9e7253"/></linearGradient><linearGradient id="Naamloos_verloop_137-2" x1="45.35" y1="349.41" x2="45.35" y2="128.3" xlink:href="#Naamloos_verloop_137"/><linearGradient id="Naamloos_verloop_137-3" x1="184.17" y1="349.41" x2="184.17" y2="128.3" xlink:href="#Naamloos_verloop_137"/></defs><g id="Laag_2" data-name="Laag 2"><g id="Latte_Machiato" data-name="Latte Machiato"><g class="cls-1"><path class="cls-2" d="M67.28,366.37c-.67-10.87,0-46.2,0-46.2"/><path class="cls-3" d="M65.68,343.26a182.41,182.41,0,0,1,1.6-23.09,224.87,224.87,0,0,1,1,23.11c0,6.37-.35,12.14-.6,16.31-.25,3.81-.45,6.78-.45,6.78s-.49-2.57-.88-6.75A162,162,0,0,1,65.68,343.26Z"/></g><path class="cls-4" d="M217.86,32.51s-7.92-21.84-21.57-22.93S160.8-.52,151.51,0,118.75,1.93,104.83,7.4s-32.24,6.82-39.74,6.82-29.34-2.75-36.16,2-21.67,5-21.67,15.23S14,90.13,14.64,93.4s8.48,28.23,11,34.9S36.09,185.36,38.33,201s6.11,65.44,6.11,65.44l4.43,61.87s-.23,11.44,5.26,15.32,8.37,6.34,13.15,7.18,33.11,2.83,43,2.75,40.89-1.79,40.89-1.79a60.16,60.16,0,0,0,16.48-3.06c7.61-2.8,11.49-9.36,12.11-13.48s8.06-61.53,8.06-61.53l8.67-70.5,5.79-46.36,4.93-28.57,7.72-32.44Z"/><path class="cls-5" d="M107,364.88l6.53,1.2s1.15.55,1.27.91.16.7-.25.84a15.17,15.17,0,0,1-2,.3h-4a2.69,2.69,0,0,1-2-1.31,3.19,3.19,0,0,1-.48-1.93Z"/><path class="cls-6" d="M15.38,96.3c-1-3.7-8.12-54.56-8.12-64.81S22.1,21.05,28.93,16.26s28.66-2,36.16-2S90.9,12.86,104.83,7.4,142.23.57,151.51,0s31.13,8.47,44.78,9.56,21.57,22.93,21.57,22.93l-2.92,63.35C158,125,15.64,97.1,15.64,97.1Z"/><path class="cls-7" d="M186.22,376.18,156,387.26l-28,3.45L85,391l-17.92-3.82L37,370.67l-5.61-11.39-16-203.83a73.93,73.93,0,0,0-2.23-13.11l-1.8-6.82a62.45,62.45,0,0,1-1.8-10.14L1.07,33.64A2.44,2.44,0,0,1,3.51,31l70.76-3.79q3-.17,6-.16h77q3.3,0,6.58.17L234.14,31a2.38,2.38,0,0,1,2.36,2.62l-8.65,86.48a18.57,18.57,0,0,1-.74,3.69l-4.25,13.85a57.42,57.42,0,0,0-2.23,11.17L200.12,361,195.91,369Z"/><path class="cls-8" d="M151.18,351.8l-31,1.71c-1.83.1-3.66.1-5.49,0L78.34,351.8c-2.47,0-4.61-1.68-4.78-3.76L58.48,163c-.32-3.93,2.2-7.14,5.64-7.14L108,153.09a109.23,109.23,0,0,1,13.54,0l43.87,2.74c3.43,0,6,3.21,5.64,7.14L156,348C155.78,350.12,153.65,351.8,151.18,351.8Z"/><path class="cls-9" d="M59.63,347.54h0a17.18,17.18,0,0,1-9.89-12.28,52.08,52.08,0,0,1-.87-6.92L41.22,221.52c0-.41-.08-.81-.13-1.21l-11.28-79c-.47-7.7-8-14.92-1.64-12.62l17.37,11.35C48.61,142.3,51.48,150.34,52,158L65,342.64c.42,6.91-.69,7.63-3.15,6.1A17,17,0,0,0,59.63,347.54Z"/><path class="cls-10" d="M169.89,347.54h0a17.14,17.14,0,0,0,9.88-12.28,52,52,0,0,0,.88-6.92l7.65-106.82c0-.41.07-.81.13-1.21l11.28-79c.47-7.7,8-14.92,1.63-12.62L184,140.08c-3.08,2.22-5.94,10.26-6.41,17.95L164.51,342.64c-.42,6.91.7,7.63,3.15,6.1A17.75,17.75,0,0,1,169.89,347.54Z"/><line class="cls-6" x1="188.92" y1="264.83" x2="196.5" y2="203.23"/><g class="cls-1"><path class="cls-3" d="M20.18,104.88c1.81,4.06,3.72,8,5.72,11.64,1,1.83,2,3.6,3.11,5.27a28.58,28.58,0,0,0,3.44,4.51,7.36,7.36,0,0,0,.93.8c.31.24.78.54,1.16.8.8.55,1.58,1.09,2.33,1.65,1.51,1.1,2.92,2.24,4.26,3.37a67.8,67.8,0,0,1,7,6.81,32.31,32.31,0,0,1,7.2,12.05,15.17,15.17,0,0,1,.62,3.77c0,.86,0,1.32,0,1.32l-.17-1.31a15.6,15.6,0,0,0-.95-3.63A33,33,0,0,0,47,140.79a71,71,0,0,0-7.18-6.22c-1.36-1-2.79-2.07-4.3-3.08-.75-.51-1.53-1-2.32-1.5-.41-.26-.76-.45-1.23-.77a9.77,9.77,0,0,1-1.31-1,31,31,0,0,1-4-4.84c-1.18-1.72-2.29-3.52-3.35-5.39a129.37,129.37,0,0,1-6-11.83c-.92-2.07-1.78-4.14-2.55-6.24-.39-1-.74-2.1-1.06-3.18-.16-.54-.31-1.09-.43-1.69l-.08-.45-.06-.51a3.17,3.17,0,0,1,0-.63,3.52,3.52,0,0,0,0-.43v-.59c0-.22,0-.5-.05-.75,0-.5-.07-1-.11-1.51-.11-1-.21-2-.31-3.05q-.36-3-.69-5.91c-.94-7.63-1.79-14.59-2.52-20.52C8.06,49,7.26,41.74,7.26,41.74S8.82,48.86,11,60.44c1.09,5.79,2.35,12.68,3.58,20.39.3,1.92.6,3.9.88,5.93.14,1,.27,2,.4,3.09.06.53.11,1.07.16,1.6,0,.28.06.52.07.84v1a8,8,0,0,0,.51,2.56c.31,1,.65,2,1,3C18.43,100.83,19.28,102.85,20.18,104.88Z"/></g><g class="cls-1"><path class="cls-3" d="M65,285.11c2.24,36.25,2.26,65.73,2.26,65.73s-3.11-29.31-5.35-65.54c-1.12-18.12-1.83-34.54-2.37-46.42-.28-5.94-.51-10.75-.71-14.07-.08-1.66-.23-2.94-.29-3.82s-.11-1.33-.11-1.33.09.46.24,1.31.42,2.14.64,3.79c.49,3.3,1.11,8.08,1.77,14C62.41,250.6,63.9,267,65,285.11Z"/></g><g class="cls-1"><path class="cls-3" d="M113.85,354.59c5.3.05,10.46.2,15.46.51,2.48.14,5,.4,7.38.76s4.7.74,7,1.14c9,1.63,17.09,3.41,23.83,5s12.13,3.18,15.81,4.4c1.83.64,3.26,1.12,4.2,1.53l1.43.59-1.47-.49c-1-.34-2.41-.72-4.27-1.24-3.74-1-9.2-2.21-16-3.53s-14.88-2.77-23.9-4.15c-2.25-.34-4.57-.68-6.92-1s-4.72-.51-7.21-.62c-4.94-.23-10.08-.34-15.34-.39s-10.41,0-15.37.06-9.76.24-14.24.64-8.78,1.15-12.77,1.82-7.72,1.4-11.11,2.06c-6.78,1.34-12.25,2.51-16,3.33l-5.87,1.29,5.78-1.68c3.72-1.05,9.13-2.54,15.85-4.2,3.37-.82,7.06-1.7,11.06-2.53s8.27-1.67,12.87-2.25,9.41-.75,14.41-.94S108.56,354.54,113.85,354.59Z"/></g><path class="cls-11" d="M104.88,365a2.12,2.12,0,0,0,.53,0,5,5,0,0,0,.53-.15s0,.15.06.37a5.55,5.55,0,0,0,.42,1.56,2.85,2.85,0,0,0,2,1.31c1.09.05,2.89-.16,3.31-.11s.72.12.72.12l-.11.89a32.39,32.39,0,0,0-5.58.45,47.64,47.64,0,0,1-7.84.82l-1.67-.19a8.09,8.09,0,0,1,3-1.35c1.45-.18,3.46-.63,3.94-1.4A6.58,6.58,0,0,0,104.88,365Z"/><g class="cls-12"><path class="cls-3" d="M7.45,35.58c-.57,0-1.14,0-1.72-.07-.73,0-1.47-.08-2.24-.16A10.24,10.24,0,0,1,1,34.88a1.06,1.06,0,0,1-.24-.12,1.18,1.18,0,0,1-.33-.24,1,1,0,0,1-.2-.24A1.45,1.45,0,0,1,0,33.79c0-.15,0-.17,0-.27a2.85,2.85,0,0,1,.13-.92,3.41,3.41,0,0,1,.92-1.44,5.66,5.66,0,0,1,1.19-.87,3.2,3.2,0,0,1,1.6-.52l5-.42c13.6-1.12,29.81-2.39,47.83-3.56L70.51,25l7.19-.33c2.49-.08,4.89-.08,7.34-.11l30.4-.28c10.42,0,20.58,0,30.43.14,4.92.06,9.8.24,14.5.56l13.84.85,51.51,3.43a6.92,6.92,0,0,0,1.2,0,5.49,5.49,0,0,1,1.1,0,11.06,11.06,0,0,1,1.29.23c.7.17,1.32.33,1.95.45l1.67.35a4.23,4.23,0,0,0,1.32,0,2.26,2.26,0,0,1,1.48.44c.52.37,1,.62,1.43.94a1.27,1.27,0,0,1,.52.74,1.74,1.74,0,0,1-.19,1.05,1,1,0,0,1-.67.58,5.36,5.36,0,0,1-.77.26,25.76,25.76,0,0,1-3.24.58c-1.08.15-2.25.26-3.49.34-2.53.16-5.22.2-7.51.2l-4.09,0,0-.3v-.31l2.14-.11a55.49,55.49,0,0,0,8.47-1c.28-.13.68-.14.77-.55a.88.88,0,0,0-.12-.67,1.47,1.47,0,0,0-.75-.44c-1.18-.28-2.3-.83-3.5-.64a21.65,21.65,0,0,1-3.39.1l-3.07,0H214l-2.76-.08L199.63,31,174,30.15l-13.83-.52c-4.73-.23-9.49-.32-14.39-.31l-30.36.08-30.39.06H77.82l-7.12.19-13.82.49L9,31.93,4,32.1a1.31,1.31,0,0,0-.69.19,3.89,3.89,0,0,0-.75.49,1.27,1.27,0,0,0-.38.49.59.59,0,0,0-.05.22v0h0c-.4,0,.9-.07-.9.1.05,0,.09,0,.22-.15s.22-.29.32-.48,0,0,.05,0a9.36,9.36,0,0,0,1.92.43c.72.11,1.44.19,2.15.27l1.46.14.11,1.78"/></g></g></g></svg>