<svg xmlns="http://www.w3.org/2000/svg" xmlns:xlink="http://www.w3.org/1999/xlink" viewBox="0 0 294.51 233.21"><defs><style>.cls-1{fill:#fff;}.cls-2{fill:url(#Naamloos_verloop_233);}.cls-3{fill:#563f30;}.cls-4{fill:#e5d6c5;}</style><radialGradient id="Naamloos_verloop_233" cx="118.08" cy="11.9" fx="54.52416456442667" r="73.71" gradientTransform="matrix(0.01, -1, 2.4, 0.03, 87.83, 129.57)" gradientUnits="userSpaceOnUse"><stop offset="0" stop-color="#735442"/><stop offset="0.04" stop-color="#785744"/><stop offset="0.27" stop-color="#8d664c"/><stop offset="0.5" stop-color="#9a6f51"/><stop offset="0.7" stop-color="#9e7253"/></radialGradient></defs><g id="Laag_2" data-name="Laag 2"><g id="Regular"><path class="cls-1" d="M268.43,51.32c-5.13-.78-12,.09-19.43,2.48V42.08C249,18.84,193.26,0,124.5,0S0,18.84,0,42.08v66.63a124.5,124.5,0,0,0,124.5,124.5h0a124.43,124.43,0,0,0,106.19-59.48c6.32,5.35,12.62,8.8,17.8,9.59,19.13,2.89,39.09-24.32,44.6-60.77S287.56,54.21,268.43,51.32Zm7.76,69.29c-3.48,23-16.09,40.2-28.16,38.38a20.25,20.25,0,0,1-8.07-3.63,124.28,124.28,0,0,0,9-46.65V77a27.87,27.87,0,0,1,11.62-1.37C272.7,77.45,279.67,97.59,276.19,120.61Z"/><path class="cls-2" d="M234.47,44.9c0,18.86-49.23,32.37-110,32.37s-110-13.51-110-32.37,49.23-34.16,110-34.16S234.47,26,234.47,44.9Z"/><path class="cls-3" d="M136,117.56l-.29-.08-.35-.07-.43-.07-.49,0a9.56,9.56,0,0,0-1.18,0,9.13,9.13,0,0,0-1.41.27,10.5,10.5,0,0,0-3.21,1.51,11.93,11.93,0,0,0-3.12,3.17,11.61,11.61,0,0,0-.65,1.09c-.09.19-.21.39-.29.58l-.26.59a15.66,15.66,0,0,0-.79,2.54,16.31,16.31,0,0,0-.36,2.73,18.86,18.86,0,0,0,0,2.81,25,25,0,0,0,1.17,5.57,41.9,41.9,0,0,0,2,4.92c.2.41.39.81.59,1.21a14.79,14.79,0,0,0-5.35-1.08,17,17,0,0,0-4,.4,17.35,17.35,0,0,0-4,1.43,16.08,16.08,0,0,0-6.71,6.19A14.65,14.65,0,0,0,105,160.4a12.65,12.65,0,0,0,1.36,4.38,13.11,13.11,0,0,0,2.59,3.44,15.18,15.18,0,0,0,12.7,3.88,18.32,18.32,0,0,0,4.65-1.38A19.48,19.48,0,0,0,129.4,169c.41-.26.74-.52,1-.74l.72-.58.57-.5-.72.24-.87.27c-.34.1-.73.22-1.18.33a25.12,25.12,0,0,1-3.24.59,18.54,18.54,0,0,1-4.16,0,16.39,16.39,0,0,1-2.26-.44,11.23,11.23,0,0,1-2.22-.87,11,11,0,0,1-3.83-3.09,8.13,8.13,0,0,1-1.17-2.11,7.61,7.61,0,0,1-.46-2.36,9.34,9.34,0,0,1,1.28-5,11.2,11.2,0,0,1,3.87-3.84,13.6,13.6,0,0,1,2.5-1.19,13.39,13.39,0,0,1,2.59-.63,10.91,10.91,0,0,1,4.88.4,8.61,8.61,0,0,1,2,1,5.71,5.71,0,0,1,1.44,1.39,10.23,10.23,0,0,1,1,1.59c.08.24.15.48.22.72a17.83,17.83,0,0,1,.81,5.08v.46l0,.39,0,.35,0,.28,0,.53s.18-.18.52-.57c.13-.21.33-.46.51-.8l.27-.55a3,3,0,0,0,.14-.36,15,15,0,0,0,1.32-5.1,20.89,20.89,0,0,0,0-4.1,31.92,31.92,0,0,0-.85-4.54c-.8-3.09-2-6.2-3-9.22a27.37,27.37,0,0,1-1.64-8.2,12.94,12.94,0,0,1,.09-1.78l.06-.42c0-.15.05-.27.07-.4a7,7,0,0,1,.19-.79A10.18,10.18,0,0,1,131,121.6a8.92,8.92,0,0,1,3.58-3.23l.4-.19.37-.13.32-.12.28-.07.51-.13Z"/><path class="cls-3" d="M141.39,163.67c-.74,1.39-1.48,2.59-2,3.73a9.2,9.2,0,0,0-.56,1.68,12.5,12.5,0,0,0-.25,1.75c-.08,1.19,0,2.4,0,3.57a30.69,30.69,0,0,1-.05,3.35,10.42,10.42,0,0,1-1.42,4.72,5,5,0,0,1-.44.62c-.15.17-.26.31-.37.42l-.33.31.21-.4.21-.49c.07-.2.16-.42.23-.69a11.13,11.13,0,0,0,.17-4.46c-.12-.95-.33-2-.57-3.12a27.81,27.81,0,0,1-.55-3.85,13.43,13.43,0,0,1,.08-2.26,10.08,10.08,0,0,1,.57-2.35,30.31,30.31,0,0,1,2-4.16,28.18,28.18,0,0,0,1.68-3.76,29.11,29.11,0,0,0,1.1-3.7,30.71,30.71,0,0,0,.74-6.62,30.06,30.06,0,0,0-.35-4.61l-.06-.39-.06-.34-.1-.54-.08-.44.22.39.26.48.17.32.17.36.39.86.4,1a22.88,22.88,0,0,1,.76,2.66A23.17,23.17,0,0,1,144,155a23.82,23.82,0,0,1-.83,4.29A22.76,22.76,0,0,1,141.39,163.67Z"/><ellipse class="cls-4" cx="84.6" cy="57.41" rx="11.46" ry="5.04"/><ellipse class="cls-4" cx="65.56" cy="46.53" rx="5.73" ry="2.52"/></g></g></svg>