<svg xmlns="http://www.w3.org/2000/svg" xmlns:xlink="http://www.w3.org/1999/xlink" viewBox="0 0 333.38 383.34"><defs><style>.cls-1{isolation:isolate;}.cls-2,.cls-4{fill:#919191;}.cls-2{opacity:0.2;}.cls-3{fill:url(#Naamloos_verloop_10);}.cls-4,.cls-6{opacity:0.1;}.cls-5{mix-blend-mode:luminosity;fill:url(#Naamloos_verloop_10-2);}.cls-6{fill:#cc8e60;}</style><linearGradient id="Naamloos_verloop_10" x1="39.45" y1="209.68" x2="238.25" y2="209.68" gradientUnits="userSpaceOnUse"><stop offset="0" stop-color="#e84e1b"/><stop offset="0.04" stop-color="#eb5a1f"/><stop offset="0.14" stop-color="#f07126"/><stop offset="0.25" stop-color="#f3832c"/><stop offset="0.38" stop-color="#f68f30"/><stop offset="0.56" stop-color="#f89632"/><stop offset="1" stop-color="#f89833"/></linearGradient><linearGradient id="Naamloos_verloop_10-2" x1="39.45" y1="96.66" x2="238.25" y2="96.66" xlink:href="#Naamloos_verloop_10"/></defs><g class="cls-1"><g id="Laag_2" data-name="Laag 2"><g id="Thee"><path class="cls-2" d="M236.6,119.11H41l-6.86-84A4.09,4.09,0,0,1,39,30.7l11.15,2.05a491.39,491.39,0,0,0,177.38,0l11.15-2.05a4.09,4.09,0,0,1,4.82,4.36Z"/><path class="cls-3" d="M238.25,95.7c0-8.64-44.5-15.64-99.4-15.64s-99.4,7-99.4,15.64a2.76,2.76,0,0,0,.24,1,5.85,5.85,0,0,0-.22,2l1.47,16.15,16.56,182c2.17,23.94,25.93,42.43,54.51,42.43h53.68c28.58,0,52.33-18.49,54.51-42.43L236.82,114.2l1.41-15.42a5.85,5.85,0,0,0-.22-2A2.76,2.76,0,0,0,238.25,95.7Z"/><path class="cls-4" d="M280.4,82.32l-11.36-1L274,21.54A13.06,13.06,0,0,0,261,7.41a1040.39,1040.39,0,0,0-247.9,0h0a13,13,0,0,0-13,14.13L28,360.3a13.06,13.06,0,0,0,13,12l28,5a385.32,385.32,0,0,0,136,0l28-5a13.06,13.06,0,0,0,13-12l9.32-113.12,10.53.92C298.5,251,328.1,217,331,184.36l2.18-25C336,126.75,313,85.17,280.4,82.32Zm33.69,77.93-1.59,18.14a59.27,59.27,0,0,1-55.92,54L267.73,97.2A59.27,59.27,0,0,1,314.09,160.25Z"/><ellipse class="cls-5" cx="138.85" cy="96.66" rx="99.4" ry="15.05"/><ellipse class="cls-2" cx="137.98" cy="364.12" rx="108.05" ry="19.22"/><ellipse class="cls-6" cx="77.45" cy="214.64" rx="10.26" ry="83.01" transform="translate(-14.08 5.62) rotate(-3.81)"/></g></g></g></svg>