<svg xmlns="http://www.w3.org/2000/svg" viewBox="0 0 194.62 266.78"><defs><style>.cls-1{fill:#e8c100;}.cls-2{fill:#77512b;}.cls-3{fill:#d89500;}.cls-4{fill:#563f30;}.cls-5{fill:#fff;}.cls-6{fill:#f9e9dc;}</style></defs><g id="Laag_2" data-name="Laag 2"><g id="Hot_Chocolate" data-name="Hot Chocolate"><path class="cls-1" d="M194.41,132c-.15-2.53-.39-5.05-.7-7.56-.39-3.22-.53-6.44-2.71-9-4.54-5.39-13.44-3.71-19.76-3.71h-3a224.83,224.83,0,0,0,.09-41.27c0-18-37.52-32.54-83.8-32.54S.76,52.45.76,70.42h0c-2.31,31.33.2,64.22,13.86,97,13.06,25.6,17,50.48,13.79,72.87a14.5,14.5,0,0,0,8.13,15.24q48.21,22.54,96.51-.22a14.49,14.49,0,0,0,8.21-14.58,132.58,132.58,0,0,1,2.17-39.84,69.72,69.72,0,0,0,19.83-5c8.78-3.86,15.92-10.65,21.11-18.63,5.67-8.73,8.5-18.77,9.7-29A90.35,90.35,0,0,0,194.41,132Zm-15.66,16.85a50.93,50.93,0,0,1-7.55,20.75,33.63,33.63,0,0,1-14.81,12.8,44.84,44.84,0,0,1-8.77,2.6,153.42,153.42,0,0,1,6.88-17.54A224.59,224.59,0,0,0,166.11,127h12.63c0,.32.07.64.1,1q.33,3.5.47,7A78.2,78.2,0,0,1,178.75,148.84Z"/><ellipse class="cls-2" cx="84.63" cy="70.42" rx="66.77" ry="25.93"/><path class="cls-3" d="M84.63,53.19c33.06,0,60.5,9.33,65.83,21.58a10.75,10.75,0,0,0,.94-4.35c0-14.32-29.89-25.93-66.77-25.93S17.86,56.1,17.86,70.42a10.92,10.92,0,0,0,.94,4.35C24.13,62.52,51.58,53.19,84.63,53.19Z"/><path class="cls-4" d="M95.8,149.3l-.28-.08-.34-.06-.42-.08-.48,0a9.08,9.08,0,0,0-1.15,0,10.16,10.16,0,0,0-1.37.26,10.31,10.31,0,0,0-3.13,1.47,11.75,11.75,0,0,0-3,3.09A9.25,9.25,0,0,0,85,155c-.1.18-.21.38-.29.56l-.25.58a14.2,14.2,0,0,0-.77,2.47,15.62,15.62,0,0,0-.35,2.66,17.93,17.93,0,0,0,0,2.74,23.69,23.69,0,0,0,1.14,5.42,42.35,42.35,0,0,0,2,4.8c.19.4.39.79.58,1.17a14.49,14.49,0,0,0-5.21-1,16.54,16.54,0,0,0-3.93.39,17.5,17.5,0,0,0-3.9,1.39,15.61,15.61,0,0,0-6.52,6A14.19,14.19,0,0,0,65.65,191,12.5,12.5,0,0,0,67,195.29a12.67,12.67,0,0,0,2.53,3.35,14.8,14.8,0,0,0,12.37,3.78,17.74,17.74,0,0,0,4.53-1.35,19.88,19.88,0,0,0,3-1.68c.39-.25.72-.51,1-.72l.71-.57.55-.48-.7.23-.84.27c-.34.09-.72.21-1.16.31a24,24,0,0,1-3.15.58,18.15,18.15,0,0,1-4,0,16,16,0,0,1-2.21-.43,12.51,12.51,0,0,1-2.16-.84,10.92,10.92,0,0,1-3.73-3,7.94,7.94,0,0,1-1.13-2.05,7,7,0,0,1-.45-2.3,9.15,9.15,0,0,1,1.24-4.89,11,11,0,0,1,3.77-3.74,13.6,13.6,0,0,1,2.44-1.16,12.67,12.67,0,0,1,2.52-.61,10.63,10.63,0,0,1,4.75.39,8.44,8.44,0,0,1,1.93.94,5.93,5.93,0,0,1,1.4,1.35,9.39,9.39,0,0,1,1,1.55c.08.24.16.47.22.7a17.18,17.18,0,0,1,.79,5v.44l0,.38,0,.34,0,.28,0,.52s.17-.18.5-.56c.13-.2.32-.45.5-.78l.26-.54c0-.11.09-.22.14-.35a14.71,14.71,0,0,0,1.28-5,21.38,21.38,0,0,0,0-4,30.27,30.27,0,0,0-.83-4.42c-.77-3-1.95-6-2.93-9a27.11,27.11,0,0,1-1.6-8,12.19,12.19,0,0,1,.1-1.73l0-.41c0-.14,0-.26.07-.39s.12-.51.18-.77A10,10,0,0,1,91,153.24a8.7,8.7,0,0,1,3.49-3.15l.39-.18.36-.13.31-.12.27-.06.5-.13Z"/><path class="cls-4" d="M101.08,194.21c-.72,1.35-1.44,2.52-1.91,3.63a9,9,0,0,0-.55,1.64,10.55,10.55,0,0,0-.24,1.7,33.7,33.7,0,0,0,0,3.48,26.81,26.81,0,0,1-.06,3.26,10.23,10.23,0,0,1-1.37,4.59,6.14,6.14,0,0,1-.44.61c-.14.17-.25.3-.36.41l-.32.3.2-.39c.07-.12.13-.29.22-.47s.15-.42.21-.67a10.78,10.78,0,0,0,.17-4.35c-.11-.92-.32-1.92-.55-3a26.56,26.56,0,0,1-.54-3.75,13.77,13.77,0,0,1,.07-2.2,10.64,10.64,0,0,1,.56-2.29,30.46,30.46,0,0,1,1.95-4A28.61,28.61,0,0,0,99.74,189a31.19,31.19,0,0,0,1.07-3.61,30.26,30.26,0,0,0,.72-6.45,28.73,28.73,0,0,0-.35-4.49l-.05-.38-.06-.33-.1-.52-.07-.43.21.38.25.47.17.31.16.35.38.84.39,1a21.78,21.78,0,0,1,.75,2.6,23.15,23.15,0,0,1,.42,7.07,24.22,24.22,0,0,1-.81,4.18A22.55,22.55,0,0,1,101.08,194.21Z"/><path class="cls-5" d="M88.81.19c.43.07.87.15,1.31.25C89.68.34,89.24.26,88.81.19Z"/><path class="cls-5" d="M86.12,0l1.14,0Z"/><path class="cls-5" d="M87.47,0l1.06.12Z"/><path class="cls-5" d="M84.78.07C85.19,0,85.6,0,86,0,85.6,0,85.19,0,84.78.07Z"/><path class="cls-5" d="M45.21,45c.76-.29,1.52-.57,2.29-.82C46.73,44.38,46,44.65,45.21,45Z"/><path class="cls-5" d="M40.88,46.94c.57-.32,1.15-.63,1.76-.91C42,46.31,41.45,46.62,40.88,46.94Z"/><path class="cls-5" d="M42.64,46c.77-.36,1.55-.69,2.33-1C44.19,45.35,43.41,45.67,42.64,46Z"/><path class="cls-6" d="M45,45l.24-.09Z"/><polygon class="cls-6" points="40.88 46.94 40.88 46.94 40.88 46.94 40.88 46.94"/><polygon class="cls-6" points="47.51 44.13 47.5 44.13 47.51 44.13 47.51 44.13"/><path class="cls-6" d="M47.5,44.13h0c-.77.25-1.53.53-2.29.82L45,45c-.78.3-1.56.63-2.33,1-.61.28-1.19.59-1.76.91h0a47,47,0,0,1,6.7-2.33C47.55,44.45,47.53,44.29,47.5,44.13Z"/><path class="cls-6" d="M87.26,0h0Z"/><polygon class="cls-6" points="84.78 0.07 84.78 0.07 84.78 0.07 84.78 0.07"/><path class="cls-6" d="M86,0h0Z"/><path class="cls-6" d="M88.53.16l.28,0Z"/><path class="cls-5" d="M135.3,86.26l.19-.16-.06.05Z"/><path class="cls-5" d="M135.49,86.1c1.11-.94,2.2-1.91,3.25-2.9C137.69,84.19,136.6,85.15,135.49,86.1Z"/><path class="cls-5" d="M135.7,63.85a15.35,15.35,0,0,0-13.29-4.21,20.72,20.72,0,0,0-6.39-9,22.18,22.18,0,0,0,.29-3c0-.61,0-1.22,0-1.82a22,22,0,0,0-.61-4.35,20.5,20.5,0,0,0-8.23-12,20.14,20.14,0,0,0-.17-8.53c-1.44-6.09-5.84-10.48-11.12-13.11A14.89,14.89,0,0,0,87.08.45a17.49,17.49,0,0,0-2.3-.38A14.87,14.87,0,0,0,74.36,5.85,34.16,34.16,0,0,0,55.69,19a32.42,32.42,0,0,0-5.07,24.23c-1,.27-2.09.58-3.12.92,0,.16,0,.32.08.48a47,47,0,0,0-6.7,2.33l-.61.35a23.21,23.21,0,0,0-7,6.57C27.34,62.29,27,74.29,31.93,83.73a27.78,27.78,0,0,0,2.36,3.71c12.24,5.46,30.25,8.91,50.34,8.91,18.85,0,35.87-3,48-7.92,1-.74,1.87-1.51,2.79-2.28l.27-.25C141.47,80.3,141.58,69.42,135.7,63.85Z"/><path class="cls-6" d="M138.74,61.84a15.67,15.67,0,0,0-13.29-4.07A20.07,20.07,0,0,0,119.07,49c0-.27.08-.54.11-.81a22.16,22.16,0,0,0,.18-3.9,19.81,19.81,0,0,0-8.83-15.78,19.26,19.26,0,0,0-.17-8.27c-1.44-5.9-5.85-10.15-11.13-12.7A14.72,14.72,0,0,0,90.12.44c-.44-.1-.88-.18-1.31-.25l-.28,0L87.47,0h-.21L86.12,0H86c-.42,0-.83,0-1.24.07h0a17.49,17.49,0,0,1,2.3.38,14.89,14.89,0,0,1,9.11,7.38c5.28,2.63,9.68,7,11.12,13.11a20.14,20.14,0,0,1,.17,8.53,20.5,20.5,0,0,1,8.23,12,22,22,0,0,1,.61,4.35c0,.6,0,1.21,0,1.82a22.18,22.18,0,0,1-.29,3,20.72,20.72,0,0,1,6.39,9,15.35,15.35,0,0,1,13.29,4.21c5.88,5.57,5.77,16.45,0,22.05l-.4.36q1.77-1.49,3.44-3.06C144.51,77.78,144.63,67.24,138.74,61.84Z"/></g></g></svg>